<svg xmlns="http://www.w3.org/2000/svg" xmlns:xlink="http://www.w3.org/1999/xlink" width="1080" zoomAndPan="magnify" viewBox="0 0 810 168.749997" height="225" preserveAspectRatio="xMidYMid meet" version="1.0"><defs><g/></defs><g fill="#d9d9d9" fill-opacity="1"><g transform="translate(28.768022, 123.56693)"><g><path d="M 53.515625 0 L 48.265625 -17.265625 L 21.828125 -17.265625 L 16.5625 0 L 0 0 L 25.59375 -72.8125 L 44.390625 -72.8125 L 70.078125 0 Z M 44.59375 -30.15625 C 39.726562 -45.789062 36.988281 -54.632812 36.375 -56.6875 C 35.769531 -58.738281 35.332031 -60.359375 35.0625 -61.546875 C 33.96875 -57.316406 30.84375 -46.851562 25.6875 -30.15625 Z M 44.59375 -30.15625 "/></g></g></g><g fill="#d9d9d9" fill-opacity="1"><g transform="translate(127.285802, 123.56693)"><g><path d="M 39.921875 -60.765625 C 34.140625 -60.765625 29.660156 -58.585938 26.484375 -54.234375 C 23.304688 -49.890625 21.71875 -43.832031 21.71875 -36.0625 C 21.71875 -19.882812 27.785156 -11.796875 39.921875 -11.796875 C 45.015625 -11.796875 51.179688 -13.070312 58.421875 -15.625 L 58.421875 -2.734375 C 52.472656 -0.253906 45.828125 0.984375 38.484375 0.984375 C 27.941406 0.984375 19.875 -2.210938 14.28125 -8.609375 C 8.695312 -15.003906 5.90625 -24.1875 5.90625 -36.15625 C 5.90625 -43.695312 7.273438 -50.300781 10.015625 -55.96875 C 12.765625 -61.644531 16.707031 -65.992188 21.84375 -69.015625 C 26.988281 -72.046875 33.015625 -73.5625 39.921875 -73.5625 C 46.960938 -73.5625 54.039062 -71.859375 61.15625 -68.453125 L 56.203125 -55.953125 C 53.484375 -57.234375 50.75 -58.351562 48 -59.3125 C 45.257812 -60.28125 42.566406 -60.765625 39.921875 -60.765625 Z M 39.921875 -60.765625 "/></g></g></g><g fill="#d9d9d9" fill-opacity="1"><g transform="translate(220.447442, 123.56693)"><g><path d="M 53.515625 0 L 48.265625 -17.265625 L 21.828125 -17.265625 L 16.5625 0 L 0 0 L 25.59375 -72.8125 L 44.390625 -72.8125 L 70.078125 0 Z M 44.59375 -30.15625 C 39.726562 -45.789062 36.988281 -54.632812 36.375 -56.6875 C 35.769531 -58.738281 35.332031 -60.359375 35.0625 -61.546875 C 33.96875 -57.316406 30.84375 -46.851562 25.6875 -30.15625 Z M 44.59375 -30.15625 "/></g></g></g><g fill="#d9d9d9" fill-opacity="1"><g transform="translate(318.965233, 123.56693)"><g><path d="M 69.296875 -36.953125 C 69.296875 -25.015625 65.894531 -15.867188 59.09375 -9.515625 C 52.300781 -3.171875 42.488281 0 29.65625 0 L 9.125 0 L 9.125 -72.515625 L 31.890625 -72.515625 C 43.722656 -72.515625 52.914062 -69.390625 59.46875 -63.140625 C 66.019531 -56.890625 69.296875 -48.160156 69.296875 -36.953125 Z M 53.3125 -36.546875 C 53.3125 -52.128906 46.4375 -59.921875 32.6875 -59.921875 L 24.5 -59.921875 L 24.5 -12.703125 L 31.09375 -12.703125 C 45.90625 -12.703125 53.3125 -20.648438 53.3125 -36.546875 Z M 53.3125 -36.546875 "/></g></g></g><g fill="#d9d9d9" fill-opacity="1"><g transform="translate(422.591172, 123.56693)"><g><path d="M 68.546875 0 L 53.21875 0 L 53.21875 -31.296875 L 24.5 -31.296875 L 24.5 0 L 9.125 0 L 9.125 -72.515625 L 24.5 -72.515625 L 24.5 -44.09375 L 53.21875 -44.09375 L 53.21875 -72.515625 L 68.546875 -72.515625 Z M 68.546875 0 "/></g></g></g><g fill="#d9d9d9" fill-opacity="1"><g transform="translate(528.746398, 123.56693)"><g><path d="M 74.9375 -36.359375 C 74.9375 -24.347656 71.960938 -15.117188 66.015625 -8.671875 C 60.066406 -2.234375 51.535156 0.984375 40.421875 0.984375 C 29.304688 0.984375 20.773438 -2.234375 14.828125 -8.671875 C 8.878906 -15.117188 5.90625 -24.378906 5.90625 -36.453125 C 5.90625 -48.523438 8.890625 -57.742188 14.859375 -64.109375 C 20.828125 -70.472656 29.378906 -73.65625 40.515625 -73.65625 C 51.660156 -73.65625 60.179688 -70.445312 66.078125 -64.03125 C 71.984375 -57.613281 74.9375 -48.390625 74.9375 -36.359375 Z M 22.015625 -36.359375 C 22.015625 -28.253906 23.550781 -22.148438 26.625 -18.046875 C 29.707031 -13.953125 34.304688 -11.90625 40.421875 -11.90625 C 52.691406 -11.90625 58.828125 -20.054688 58.828125 -36.359375 C 58.828125 -52.691406 52.722656 -60.859375 40.515625 -60.859375 C 34.398438 -60.859375 29.785156 -58.796875 26.671875 -54.671875 C 23.566406 -50.554688 22.015625 -44.453125 22.015625 -36.359375 Z M 22.015625 -36.359375 "/></g></g></g><g fill="#d9d9d9" fill-opacity="1"><g transform="translate(638.026085, 123.56693)"><g><path d="M 51.9375 -20.140625 C 51.9375 -13.585938 49.578125 -8.425781 44.859375 -4.65625 C 40.148438 -0.894531 33.597656 0.984375 25.203125 0.984375 C 17.460938 0.984375 10.613281 -0.46875 4.65625 -3.375 L 4.65625 -17.65625 C 9.550781 -15.476562 13.691406 -13.941406 17.078125 -13.046875 C 20.472656 -12.148438 23.578125 -11.703125 26.390625 -11.703125 C 29.765625 -11.703125 32.351562 -12.347656 34.15625 -13.640625 C 35.957031 -14.929688 36.859375 -16.847656 36.859375 -19.390625 C 36.859375 -20.816406 36.457031 -22.082031 35.65625 -23.1875 C 34.863281 -24.289062 33.695312 -25.351562 32.15625 -26.375 C 30.625 -27.40625 27.492188 -29.046875 22.765625 -31.296875 C 18.335938 -33.378906 15.015625 -35.378906 12.796875 -37.296875 C 10.578125 -39.210938 8.804688 -41.441406 7.484375 -43.984375 C 6.160156 -46.535156 5.5 -49.515625 5.5 -52.921875 C 5.5 -59.335938 7.671875 -64.378906 12.015625 -68.046875 C 16.367188 -71.722656 22.382812 -73.5625 30.0625 -73.5625 C 33.832031 -73.5625 37.425781 -73.113281 40.84375 -72.21875 C 44.269531 -71.320312 47.847656 -70.066406 51.578125 -68.453125 L 46.625 -56.5 C 42.75 -58.082031 39.546875 -59.1875 37.015625 -59.8125 C 34.492188 -60.445312 32.007812 -60.765625 29.5625 -60.765625 C 26.65625 -60.765625 24.421875 -60.082031 22.859375 -58.71875 C 21.304688 -57.363281 20.53125 -55.597656 20.53125 -53.421875 C 20.53125 -52.066406 20.84375 -50.882812 21.46875 -49.875 C 22.101562 -48.863281 23.101562 -47.882812 24.46875 -46.9375 C 25.84375 -46 29.09375 -44.304688 34.21875 -41.859375 C 41 -38.617188 45.644531 -35.367188 48.15625 -32.109375 C 50.675781 -28.859375 51.9375 -24.867188 51.9375 -20.140625 Z M 51.9375 -20.140625 "/></g></g></g><g fill="#d9d9d9" fill-opacity="1"><g transform="translate(722.409597, 123.56693)"><g><path d="M 37.09375 0 L 21.71875 0 L 21.71875 -59.71875 L 2.03125 -59.71875 L 2.03125 -72.515625 L 56.796875 -72.515625 L 56.796875 -59.71875 L 37.09375 -59.71875 Z M 37.09375 0 "/></g></g></g></svg>